<svg width="305" height="59" viewBox="0 0 305 59" fill="none" xmlns="http://www.w3.org/2000/svg">
<path d="M40.5434 4.59518H37.5825V1.55004C37.5789 1.2131 37.4566 0.888229 37.2372 0.632761C37.0177 0.377293 36.7151 0.207642 36.3829 0.153747C34.2383 -0.103405 32.0673 -0.0375441 29.9422 0.349134C26.0959 1.04966 23.0255 2.77477 20.9453 5.39102C18.865 2.77477 15.7946 1.04966 11.9483 0.349134C9.82483 -0.0376385 7.65541 -0.103501 5.51241 0.153747C5.18015 0.207642 4.87759 0.377293 4.65811 0.632761C4.43863 0.888229 4.31634 1.2131 4.31282 1.55004V4.59518H1.40428C1.02967 4.60143 0.672516 4.75481 0.409824 5.02225C0.147133 5.28968 -5.20264e-05 5.64975 1.37952e-08 6.02483V32.5924C0.00460924 32.8156 0.0613782 33.0347 0.165759 33.232C0.270141 33.4293 0.419233 33.5994 0.60109 33.7286C0.782947 33.8579 0.992515 33.9427 1.213 33.9762C1.43349 34.0098 1.65877 33.9912 1.87079 33.922C1.97552 33.8839 12.5291 30.2811 20.3978 33.8743C20.5819 33.9572 20.7815 34 20.9833 34C21.1852 34 21.3847 33.9572 21.5689 33.8743C29.4186 30.2907 39.9912 33.8743 40.0959 33.922C40.2491 33.9742 40.4101 34 40.5719 33.9982C40.9466 33.9983 41.3063 33.8509 41.5734 33.5879C41.8405 33.325 41.9938 32.9674 42 32.5924V6.00577C41.9975 5.8172 41.9578 5.63099 41.8831 5.45786C41.8085 5.28472 41.7003 5.12809 41.5649 4.99698C41.4295 4.86587 41.2696 4.76286 41.0942 4.6939C40.9189 4.62494 40.7317 4.59139 40.5434 4.59518ZM2.79429 30.6862V7.41635H4.33186V26.1924C4.3316 26.3938 4.37387 26.5931 4.4559 26.777C4.53794 26.961 4.65789 27.1255 4.80789 27.2598C4.96188 27.3916 5.14212 27.4891 5.33664 27.5458C5.53115 27.6025 5.73548 27.6171 5.93607 27.5886C6.01224 27.5886 12.1244 26.7356 16.5991 29.8046C11.1057 28.8658 5.59333 29.9523 2.79429 30.6862ZM19.5553 28.5322C17.4086 26.6607 14.779 25.432 11.9674 24.9867C10.671 24.7559 9.35678 24.6411 8.04012 24.6436C7.71642 24.6436 7.41652 24.6436 7.14519 24.6436V2.81766C9.85379 2.69852 16.4373 2.98445 19.5553 8.2789V28.5322ZM22.3733 8.28843C25.4818 3.01781 32.0748 2.71758 34.7834 2.83195V24.6531C33.169 24.5834 31.5518 24.692 29.9612 24.9772C27.1499 25.4235 24.5206 26.652 22.3733 28.5227V8.28843ZM25.3152 29.7951C29.7851 26.7213 35.9068 27.5648 35.983 27.5743C36.1836 27.605 36.3885 27.5915 36.5834 27.5347C36.7782 27.4779 36.9584 27.3792 37.1112 27.2455C37.2612 27.1112 37.3811 26.9467 37.4632 26.7627C37.5452 26.5788 37.5875 26.3795 37.5872 26.1781V7.40205H39.12V30.6862C36.3353 29.9523 30.8229 28.861 25.3152 29.8094V29.7951Z" fill="#E9EBF8"/>
<path d="M79.392 21.088V7.288L72.144 25.72H71.52L64.536 7.888V21.088C64.536 22.352 64.568 23.288 64.632 23.896L66.864 24.184C66.96 24.472 66.96 24.76 66.864 25.048C65.488 25.016 64.512 25 63.936 25C62.976 25 62.008 25.024 61.032 25.072C60.968 24.72 60.968 24.424 61.032 24.184L63.216 23.944V9.808C63.216 8.544 63.184 7.608 63.12 7L61.128 6.712C61.032 6.44 61.032 6.168 61.128 5.896H66.408L72.432 21.688L78.6 5.896C78.968 5.912 79.528 5.92 80.28 5.92C80.44 5.92 81.696 5.896 84.048 5.848C84.144 6.136 84.144 6.424 84.048 6.712L82.056 7C81.992 7.608 81.96 8.544 81.96 9.808V23.944L83.904 24.184C83.968 24.424 83.968 24.72 83.904 25.072C82.896 25.024 81.8 25 80.616 25C79.752 25 78.648 25.016 77.304 25.048C77.208 24.648 77.208 24.36 77.304 24.184L79.296 23.896C79.36 23.288 79.392 22.352 79.392 21.088ZM88.2713 21.808C88.2713 22.64 88.4233 23.232 88.7273 23.584C89.0313 23.92 89.5113 24.088 90.1673 24.088C90.6473 24.088 91.1753 23.944 91.7513 23.656C92.3433 23.352 92.8873 22.92 93.3833 22.36V18.616C91.7353 18.712 90.4713 19.008 89.5913 19.504C88.7113 19.984 88.2713 20.752 88.2713 21.808ZM93.3833 17.752V16.528C93.3833 15.168 93.2233 14.184 92.9033 13.576C92.5993 12.952 92.0873 12.64 91.3672 12.64C90.6313 12.64 90.0393 12.88 89.5913 13.36C89.1433 13.824 88.8393 14.624 88.6793 15.76C88.1673 15.872 87.7913 15.928 87.5513 15.928C86.9273 15.928 86.5593 15.704 86.4473 15.256C86.4473 14.168 86.9193 13.304 87.8633 12.664C88.8073 12.024 89.9833 11.704 91.3913 11.704C92.9433 11.704 94.0393 12.024 94.6793 12.664C95.3353 13.288 95.6633 14.416 95.6633 16.048V22.816C95.6633 23.216 95.6873 23.56 95.7353 23.848L97.6313 24.088C97.6953 24.328 97.6953 24.632 97.6313 25C96.4953 25.048 95.2873 25.16 94.0073 25.336C93.8793 25.208 93.7993 25.048 93.7673 24.856L93.6473 23.2C92.3193 24.72 90.8393 25.48 89.2073 25.48C88.1993 25.48 87.4073 25.192 86.8313 24.616C86.2713 24.04 85.9913 23.264 85.9913 22.288C85.9913 20.816 86.6553 19.704 87.9833 18.952C89.3273 18.2 91.1273 17.8 93.3833 17.752ZM102.964 12.184L102.916 14.656C103.316 13.92 103.868 13.248 104.572 12.64C105.292 12.016 105.972 11.704 106.612 11.704C107.108 11.704 107.548 11.76 107.932 11.872C108.06 12.08 108.124 12.352 108.124 12.688C108.124 13.216 108.012 13.744 107.788 14.272C107.212 14.112 106.66 14.032 106.132 14.032C104.82 14.032 103.74 14.672 102.892 15.952L102.844 20.152V23.776L105.508 24.136C105.572 24.392 105.572 24.712 105.508 25.096C104.5 25.048 103.348 25.024 102.052 25.024C101.076 25.024 99.9156 25.04 98.5716 25.072C98.4756 24.768 98.4756 24.456 98.5716 24.136L100.468 23.872C100.532 22.992 100.564 21.976 100.564 20.824V14.248C100.564 13.928 100.54 13.632 100.492 13.36L98.5956 13.12C98.5316 12.88 98.5316 12.576 98.5956 12.208C99.6996 12.128 101.076 11.96 102.724 11.704C102.868 11.864 102.948 12.024 102.964 12.184ZM120.765 21.592C120.765 22.664 120.789 23.416 120.837 23.848L122.733 24.088C122.781 24.344 122.781 24.648 122.733 25C121.565 25.048 120.349 25.16 119.085 25.336C118.973 25.224 118.893 25.072 118.845 24.88L118.725 23.344C118.165 24 117.469 24.528 116.637 24.928C115.805 25.312 114.933 25.504 114.021 25.504C112.629 25.504 111.477 24.928 110.565 23.776C109.653 22.608 109.197 21.056 109.197 19.12C109.197 16.88 109.789 15.088 110.973 13.744C112.173 12.384 113.605 11.704 115.269 11.704C116.581 11.704 117.653 12.016 118.485 12.64V9.424C118.485 8.368 118.461 7.584 118.413 7.072L116.517 6.832C116.453 6.592 116.453 6.288 116.517 5.92C117.621 5.84 118.997 5.672 120.645 5.416C120.789 5.576 120.869 5.736 120.885 5.896C120.805 6.312 120.765 7.608 120.765 9.784V21.592ZM115.077 13C114.037 13 113.205 13.552 112.581 14.656C111.957 15.744 111.645 17.256 111.645 19.192C111.645 20.776 111.933 21.984 112.509 22.816C113.101 23.648 113.877 24.064 114.837 24.064C115.413 24.064 116.045 23.888 116.733 23.536C117.421 23.168 118.005 22.664 118.485 22.024V14.344C117.701 13.448 116.565 13 115.077 13ZM134.205 18.232H126.669C126.525 22.312 127.749 24.352 130.341 24.352C131.445 24.352 132.573 23.864 133.725 22.888C133.965 23.032 134.149 23.28 134.277 23.632C133.173 24.864 131.773 25.48 130.077 25.48C126.173 25.48 124.221 23.184 124.221 18.592C124.221 16.416 124.797 14.728 125.949 13.528C127.101 12.312 128.445 11.704 129.981 11.704C131.661 11.704 132.869 12.288 133.605 13.456C134.341 14.624 134.709 16.144 134.709 18.016C134.549 18.144 134.381 18.216 134.205 18.232ZM129.933 12.664C129.101 12.664 128.389 13.096 127.797 13.96C127.221 14.824 126.869 15.928 126.741 17.272H129.717C130.901 17.272 131.749 17.2 132.261 17.056C132.261 15.744 132.061 14.688 131.661 13.888C131.261 13.072 130.685 12.664 129.933 12.664ZM140.718 18.088L145.734 13.24L144.15 13.048C144.086 12.792 144.086 12.48 144.15 12.112C145.03 12.176 145.854 12.208 146.622 12.208C147.246 12.208 148.078 12.184 149.118 12.136C149.214 12.424 149.214 12.728 149.118 13.048L147.222 13.384L142.974 17.368L148.206 23.632L150.078 24.112C150.142 24.368 150.142 24.688 150.078 25.072C149.07 25.024 148.062 25 147.054 25C146.366 25 145.35 25.016 144.006 25.048C143.91 24.728 143.91 24.416 144.006 24.112L145.59 23.896L140.718 18.088ZM140.454 9.784V23.776L142.398 24.136C142.462 24.392 142.462 24.712 142.398 25.096C141.39 25.048 140.366 25.024 139.326 25.024C138.59 25.024 137.55 25.04 136.206 25.072C136.11 24.768 136.11 24.456 136.206 24.136L138.102 23.872C138.166 22.992 138.198 21.976 138.198 20.824V7.072L136.23 6.832C136.166 6.592 136.166 6.288 136.23 5.92C137.302 5.84 138.67 5.672 140.334 5.416C140.478 5.576 140.558 5.736 140.574 5.896C140.494 6.312 140.454 7.608 140.454 9.784ZM153.334 21.808C153.334 22.64 153.486 23.232 153.79 23.584C154.094 23.92 154.574 24.088 155.23 24.088C155.71 24.088 156.238 23.944 156.814 23.656C157.406 23.352 157.95 22.92 158.446 22.36V18.616C156.798 18.712 155.534 19.008 154.654 19.504C153.774 19.984 153.334 20.752 153.334 21.808ZM158.446 17.752V16.528C158.446 15.168 158.286 14.184 157.966 13.576C157.662 12.952 157.15 12.64 156.43 12.64C155.694 12.64 155.102 12.88 154.654 13.36C154.206 13.824 153.902 14.624 153.742 15.76C153.23 15.872 152.854 15.928 152.614 15.928C151.99 15.928 151.622 15.704 151.51 15.256C151.51 14.168 151.982 13.304 152.926 12.664C153.87 12.024 155.046 11.704 156.454 11.704C158.006 11.704 159.102 12.024 159.742 12.664C160.398 13.288 160.726 14.416 160.726 16.048V22.816C160.726 23.216 160.75 23.56 160.798 23.848L162.694 24.088C162.758 24.328 162.758 24.632 162.694 25C161.558 25.048 160.35 25.16 159.07 25.336C158.942 25.208 158.862 25.048 158.83 24.856L158.71 23.2C157.382 24.72 155.902 25.48 154.27 25.48C153.262 25.48 152.47 25.192 151.894 24.616C151.334 24.04 151.054 23.264 151.054 22.288C151.054 20.816 151.718 19.704 153.046 18.952C154.39 18.2 156.19 17.8 158.446 17.752ZM167.45 25L164.018 25.072C163.922 24.784 163.922 24.496 164.018 24.208L166.01 23.944C166.074 23.128 166.106 22.184 166.106 21.112V6.952L164.162 6.712C164.098 6.472 164.098 6.176 164.162 5.824C165.042 5.888 166.138 5.92 167.45 5.92C168.618 5.92 169.722 5.896 170.762 5.848C170.858 6.136 170.858 6.424 170.762 6.712L168.77 7C168.706 7.608 168.674 8.544 168.674 9.808V23.776H176.594L177.722 19.432C177.962 19.368 178.258 19.368 178.61 19.432L178.586 25H167.45ZM184.195 16.072V23.776L186.139 24.136C186.155 24.216 186.163 24.288 186.163 24.352C186.179 24.416 186.187 24.488 186.187 24.568C186.187 24.648 186.179 24.736 186.163 24.832C186.163 24.912 186.155 25 186.139 25.096C185.131 25.048 184.099 25.024 183.043 25.024C182.675 25.024 182.227 25.024 181.699 25.024C181.187 25.04 180.595 25.056 179.923 25.072C179.875 24.928 179.851 24.776 179.851 24.616C179.851 24.472 179.875 24.312 179.923 24.136L181.819 23.872C181.851 23.424 181.875 22.952 181.891 22.456C181.907 21.944 181.915 21.4 181.915 20.824V15.712C181.915 14.656 181.891 13.872 181.843 13.36L179.947 13.12C179.915 13.04 179.899 12.904 179.899 12.712C179.899 12.632 179.899 12.552 179.899 12.472C179.899 12.392 179.915 12.304 179.947 12.208C181.035 12.144 182.411 11.976 184.075 11.704C184.219 11.864 184.299 12.024 184.315 12.184C184.235 12.632 184.195 13.928 184.195 16.072ZM180.691 7.504C180.659 7.424 180.643 7.344 180.643 7.264C180.643 7.168 180.643 7.08 180.643 7C180.643 6.568 180.819 6.224 181.171 5.968C181.539 5.696 181.987 5.56 182.515 5.56C183.011 5.56 183.411 5.712 183.715 6.016C184.035 6.304 184.195 6.704 184.195 7.216C184.195 7.632 184.011 7.968 183.643 8.224C183.291 8.48 182.835 8.608 182.275 8.608C181.891 8.608 181.547 8.512 181.243 8.32C180.955 8.128 180.771 7.856 180.691 7.504ZM191.193 9.304V12.736H194.577C194.609 12.928 194.625 13.072 194.625 13.168C194.625 13.312 194.609 13.48 194.577 13.672L191.193 14.176V20.776C191.193 21.96 191.297 22.8 191.505 23.296C191.729 23.776 192.073 24.016 192.537 24.016C192.953 24.016 193.601 23.848 194.481 23.512C194.641 23.656 194.753 23.928 194.817 24.328C194.337 24.616 193.969 24.832 193.713 24.976C193.473 25.104 193.161 25.216 192.777 25.312C192.409 25.424 192.017 25.48 191.601 25.48C190.801 25.48 190.145 25.176 189.633 24.568C189.137 23.944 188.889 23 188.889 21.736V13.888L187.209 13.672C187.177 13.512 187.161 13.376 187.161 13.264C187.161 13.136 187.177 12.96 187.209 12.736C187.657 12.656 188.041 12.52 188.361 12.328C188.697 12.12 188.977 11.84 189.201 11.488C189.425 11.12 189.593 10.8 189.705 10.528C189.833 10.24 189.985 9.832 190.161 9.304C190.305 9.256 190.481 9.232 190.689 9.232C190.881 9.232 191.049 9.256 191.193 9.304ZM206.252 18.232H198.715C198.572 22.312 199.796 24.352 202.388 24.352C203.492 24.352 204.62 23.864 205.772 22.888C206.012 23.032 206.196 23.28 206.324 23.632C205.22 24.864 203.82 25.48 202.124 25.48C198.22 25.48 196.268 23.184 196.268 18.592C196.268 16.416 196.844 14.728 197.996 13.528C199.148 12.312 200.492 11.704 202.028 11.704C203.708 11.704 204.916 12.288 205.652 13.456C206.388 14.624 206.756 16.144 206.756 18.016C206.596 18.144 206.428 18.216 206.252 18.232ZM201.98 12.664C201.148 12.664 200.436 13.096 199.844 13.96C199.268 14.824 198.916 15.928 198.788 17.272H201.764C202.948 17.272 203.796 17.2 204.308 17.056C204.308 15.744 204.108 14.688 203.708 13.888C203.308 13.072 202.732 12.664 201.98 12.664ZM212.909 12.184L212.861 14.656C213.261 13.92 213.813 13.248 214.517 12.64C215.237 12.016 215.917 11.704 216.557 11.704C217.053 11.704 217.493 11.76 217.877 11.872C218.005 12.08 218.069 12.352 218.069 12.688C218.069 13.216 217.957 13.744 217.733 14.272C217.157 14.112 216.605 14.032 216.077 14.032C214.765 14.032 213.685 14.672 212.837 15.952L212.789 20.152V23.776L215.453 24.136C215.517 24.392 215.517 24.712 215.453 25.096C214.445 25.048 213.293 25.024 211.997 25.024C211.021 25.024 209.861 25.04 208.517 25.072C208.421 24.768 208.421 24.456 208.517 24.136L210.413 23.872C210.477 22.992 210.509 21.976 210.509 20.824V14.248C210.509 13.928 210.485 13.632 210.437 13.36L208.541 13.12C208.477 12.88 208.477 12.576 208.541 12.208C209.645 12.128 211.021 11.96 212.669 11.704C212.813 11.864 212.893 12.024 212.909 12.184ZM221.467 21.808C221.467 22.64 221.619 23.232 221.923 23.584C222.227 23.92 222.707 24.088 223.363 24.088C223.843 24.088 224.371 23.944 224.947 23.656C225.539 23.352 226.083 22.92 226.579 22.36V18.616C224.931 18.712 223.667 19.008 222.787 19.504C221.907 19.984 221.467 20.752 221.467 21.808ZM226.579 17.752V16.528C226.579 15.168 226.419 14.184 226.099 13.576C225.795 12.952 225.283 12.64 224.563 12.64C223.827 12.64 223.235 12.88 222.787 13.36C222.339 13.824 222.035 14.624 221.875 15.76C221.363 15.872 220.987 15.928 220.747 15.928C220.123 15.928 219.755 15.704 219.643 15.256C219.643 14.168 220.115 13.304 221.059 12.664C222.003 12.024 223.179 11.704 224.587 11.704C226.139 11.704 227.235 12.024 227.875 12.664C228.531 13.288 228.859 14.416 228.859 16.048V22.816C228.859 23.216 228.883 23.56 228.931 23.848L230.827 24.088C230.891 24.328 230.891 24.632 230.827 25C229.691 25.048 228.483 25.16 227.203 25.336C227.075 25.208 226.995 25.048 226.963 24.856L226.843 23.2C225.515 24.72 224.035 25.48 222.403 25.48C221.395 25.48 220.603 25.192 220.027 24.616C219.467 24.04 219.187 23.264 219.187 22.288C219.187 20.816 219.851 19.704 221.179 18.952C222.523 18.2 224.323 17.8 226.579 17.752ZM236.375 24.424C237.239 24.424 237.879 24.224 238.295 23.824C238.711 23.424 238.919 22.96 238.919 22.432C238.919 22.128 238.871 21.848 238.775 21.592C238.679 21.336 238.519 21.088 238.295 20.848C238.087 20.608 237.807 20.376 237.455 20.152C237.103 19.912 236.663 19.656 236.135 19.384C235.479 19.048 234.911 18.728 234.431 18.424C233.967 18.12 233.583 17.8 233.279 17.464C232.975 17.128 232.743 16.768 232.583 16.384C232.439 16 232.367 15.568 232.367 15.088C232.367 14.512 232.471 14.016 232.679 13.6C232.887 13.168 233.175 12.816 233.543 12.544C233.927 12.256 234.375 12.048 234.887 11.92C235.399 11.776 235.967 11.704 236.591 11.704C237.839 11.704 239.055 12.008 240.239 12.616V15.688H239.111L238.583 13.096C237.879 12.76 237.135 12.592 236.351 12.592C235.039 12.592 234.383 13.128 234.383 14.2C234.383 14.776 234.599 15.304 235.031 15.784C235.463 16.264 236.159 16.744 237.119 17.224C237.775 17.56 238.351 17.88 238.847 18.184C239.343 18.488 239.751 18.808 240.071 19.144C240.407 19.48 240.655 19.848 240.815 20.248C240.991 20.632 241.079 21.072 241.079 21.568C241.079 22.128 240.959 22.648 240.719 23.128C240.479 23.608 240.143 24.024 239.711 24.376C239.279 24.712 238.759 24.976 238.151 25.168C237.543 25.376 236.871 25.48 236.135 25.48C234.711 25.48 233.375 25.176 232.127 24.568V21.496H233.255L233.783 23.872C234.599 24.24 235.463 24.424 236.375 24.424ZM247.078 16.072V23.776L249.022 24.136C249.038 24.216 249.046 24.288 249.046 24.352C249.062 24.416 249.07 24.488 249.07 24.568C249.07 24.648 249.062 24.736 249.046 24.832C249.046 24.912 249.038 25 249.022 25.096C248.014 25.048 246.982 25.024 245.926 25.024C245.558 25.024 245.11 25.024 244.582 25.024C244.07 25.04 243.478 25.056 242.806 25.072C242.758 24.928 242.734 24.776 242.734 24.616C242.734 24.472 242.758 24.312 242.806 24.136L244.702 23.872C244.734 23.424 244.758 22.952 244.774 22.456C244.79 21.944 244.798 21.4 244.798 20.824V15.712C244.798 14.656 244.774 13.872 244.726 13.36L242.83 13.12C242.798 13.04 242.782 12.904 242.782 12.712C242.782 12.632 242.782 12.552 242.782 12.472C242.782 12.392 242.798 12.304 242.83 12.208C243.918 12.144 245.294 11.976 246.958 11.704C247.102 11.864 247.182 12.024 247.198 12.184C247.118 12.632 247.078 13.928 247.078 16.072ZM243.574 7.504C243.542 7.424 243.526 7.344 243.526 7.264C243.526 7.168 243.526 7.08 243.526 7C243.526 6.568 243.702 6.224 244.054 5.968C244.422 5.696 244.87 5.56 245.398 5.56C245.894 5.56 246.294 5.712 246.598 6.016C246.918 6.304 247.078 6.704 247.078 7.216C247.078 7.632 246.894 7.968 246.526 8.224C246.174 8.48 245.718 8.608 245.158 8.608C244.774 8.608 244.43 8.512 244.126 8.32C243.838 8.128 243.654 7.856 243.574 7.504Z" fill="#042B56"/>
<path d="M169.701 37H2.29902C1.68928 37 1.10452 36.842 0.673367 36.5606C0.242216 36.2793 0 35.8978 0 35.5C0 35.1022 0.242216 34.7206 0.673367 34.4393C1.10452 34.158 1.68928 34 2.29902 34H169.701C170.311 34 170.895 34.158 171.327 34.4393C171.758 34.7206 172 35.1022 172 35.5C172 35.8978 171.758 36.2793 171.327 36.5606C170.895 36.842 170.311 37 169.701 37Z" fill="#E9EBF8"/>
<path d="M1.148 42.976H4.354C5.39 42.976 6.29533 43.186 7.07 43.606C7.84467 44.026 8.43733 44.6187 8.848 45.384C9.268 46.14 9.478 47.008 9.478 47.988C9.478 48.968 9.268 49.8407 8.848 50.606C8.43733 51.362 7.84467 51.95 7.07 52.37C6.29533 52.79 5.39 53 4.354 53H1.148V42.976ZM4.326 51.502C5.446 51.502 6.31867 51.194 6.944 50.578C7.57867 49.9527 7.896 49.0893 7.896 47.988C7.896 46.896 7.57867 46.0373 6.944 45.412C6.31867 44.7867 5.446 44.474 4.326 44.474H2.716V51.502H4.326ZM11.8952 44.824C11.6059 44.824 11.3585 44.726 11.1532 44.53C10.9572 44.3247 10.8592 44.0773 10.8592 43.788C10.8592 43.4987 10.9572 43.256 11.1532 43.06C11.3585 42.8547 11.6059 42.752 11.8952 42.752C12.1845 42.752 12.4272 42.8547 12.6232 43.06C12.8285 43.256 12.9312 43.4987 12.9312 43.788C12.9312 44.0773 12.8285 44.3247 12.6232 44.53C12.4272 44.726 12.1845 44.824 11.8952 44.824ZM11.1252 45.86H12.6652V53H11.1252V45.86ZM17.1855 53.224C16.3642 53.224 15.6922 53.0467 15.1695 52.692C14.6469 52.328 14.2782 51.866 14.0635 51.306L15.4355 50.704C15.6035 51.0773 15.8369 51.362 16.1355 51.558C16.4435 51.754 16.7935 51.852 17.1855 51.852C17.5682 51.852 17.8902 51.7867 18.1515 51.656C18.4129 51.516 18.5435 51.3107 18.5435 51.04C18.5435 50.7787 18.4315 50.5733 18.2075 50.424C17.9835 50.2747 17.6382 50.144 17.1715 50.032L16.3175 49.822C15.7482 49.682 15.2769 49.4347 14.9035 49.08C14.5302 48.7253 14.3435 48.2773 14.3435 47.736C14.3435 47.316 14.4649 46.9473 14.7075 46.63C14.9595 46.3127 15.2955 46.07 15.7155 45.902C16.1355 45.7247 16.5929 45.636 17.0875 45.636C17.7502 45.636 18.3335 45.7713 18.8375 46.042C19.3415 46.3033 19.7055 46.686 19.9295 47.19L18.5855 47.778C18.3149 47.2273 17.8202 46.952 17.1015 46.952C16.7562 46.952 16.4669 47.022 16.2335 47.162C16.0002 47.302 15.8835 47.484 15.8835 47.708C15.8835 47.9227 15.9722 48.1 16.1495 48.24C16.3269 48.3707 16.5882 48.4827 16.9335 48.576L17.9835 48.842C18.6835 49.0193 19.2109 49.29 19.5655 49.654C19.9295 50.0087 20.1115 50.4473 20.1115 50.97C20.1115 51.418 19.9809 51.8147 19.7195 52.16C19.4675 52.496 19.1175 52.7573 18.6695 52.944C18.2215 53.1307 17.7269 53.224 17.1855 53.224ZM24.8172 53.224C24.1079 53.224 23.4685 53.0607 22.8992 52.734C22.3392 52.4073 21.9005 51.9593 21.5832 51.39C21.2752 50.8113 21.1212 50.158 21.1212 49.43C21.1212 48.702 21.2752 48.0533 21.5832 47.484C21.9005 46.9053 22.3392 46.4527 22.8992 46.126C23.4685 45.7993 24.1079 45.636 24.8172 45.636C25.6012 45.636 26.2685 45.8133 26.8192 46.168C27.3699 46.5227 27.7619 47.0033 27.9952 47.61L26.5812 48.198C26.2639 47.442 25.6619 47.064 24.7752 47.064C24.3925 47.064 24.0379 47.162 23.7112 47.358C23.3939 47.554 23.1372 47.834 22.9412 48.198C22.7545 48.5527 22.6612 48.9633 22.6612 49.43C22.6612 49.8967 22.7545 50.312 22.9412 50.676C23.1372 51.04 23.3939 51.32 23.7112 51.516C24.0379 51.712 24.3925 51.81 24.7752 51.81C25.2232 51.81 25.6059 51.712 25.9232 51.516C26.2499 51.3107 26.4972 51.0213 26.6652 50.648L28.0512 51.25C27.7805 51.8567 27.3699 52.3373 26.8192 52.692C26.2685 53.0467 25.6012 53.224 24.8172 53.224ZM32.6385 53.224C31.9198 53.224 31.2758 53.0607 30.7065 52.734C30.1372 52.398 29.6938 51.9407 29.3765 51.362C29.0592 50.7833 28.9005 50.1393 28.9005 49.43C28.9005 48.7207 29.0592 48.0767 29.3765 47.498C29.6938 46.9193 30.1372 46.4667 30.7065 46.14C31.2758 45.804 31.9198 45.636 32.6385 45.636C33.3572 45.636 34.0012 45.804 34.5705 46.14C35.1398 46.476 35.5832 46.9333 35.9005 47.512C36.2178 48.0907 36.3765 48.73 36.3765 49.43C36.3765 50.1393 36.2178 50.7833 35.9005 51.362C35.5832 51.9407 35.1398 52.398 34.5705 52.734C34.0012 53.0607 33.3572 53.224 32.6385 53.224ZM32.6385 51.81C33.0305 51.81 33.3945 51.7167 33.7305 51.53C34.0665 51.334 34.3325 51.0587 34.5285 50.704C34.7338 50.34 34.8365 49.9153 34.8365 49.43C34.8365 48.9447 34.7338 48.5247 34.5285 48.17C34.3325 47.8153 34.0665 47.5447 33.7305 47.358C33.3945 47.162 33.0305 47.064 32.6385 47.064C32.2465 47.064 31.8825 47.162 31.5465 47.358C31.2105 47.5447 30.9398 47.8153 30.7345 48.17C30.5385 48.5247 30.4405 48.9447 30.4405 49.43C30.4405 49.9153 30.5385 50.34 30.7345 50.704C30.9398 51.0587 31.2105 51.334 31.5465 51.53C31.8825 51.7167 32.2465 51.81 32.6385 51.81ZM36.7933 45.86H38.5153L40.4893 51.012H40.5453L42.5613 45.86H44.2413L41.2733 53H39.7333L36.7933 45.86ZM48.2908 53.224C47.5908 53.224 46.9608 53.0607 46.4008 52.734C45.8501 52.4073 45.4161 51.9593 45.0988 51.39C44.7908 50.8113 44.6368 50.1627 44.6368 49.444C44.6368 48.7627 44.7861 48.1327 45.0848 47.554C45.3928 46.966 45.8175 46.4993 46.3588 46.154C46.9001 45.8087 47.5161 45.636 48.2068 45.636C48.9255 45.636 49.5461 45.7947 50.0688 46.112C50.6008 46.4293 51.0021 46.8633 51.2728 47.414C51.5528 47.9647 51.6928 48.5853 51.6928 49.276C51.6928 49.4067 51.6788 49.57 51.6508 49.766H46.1768C46.2328 50.4287 46.4661 50.942 46.8768 51.306C47.2968 51.6607 47.7821 51.838 48.3328 51.838C48.7715 51.838 49.1495 51.74 49.4668 51.544C49.7935 51.3387 50.0548 51.0633 50.2508 50.718L51.5528 51.334C51.2168 51.922 50.7781 52.384 50.2368 52.72C49.6955 53.056 49.0468 53.224 48.2908 53.224ZM50.1248 48.59C50.1061 48.338 50.0268 48.0907 49.8868 47.848C49.7468 47.596 49.5321 47.386 49.2428 47.218C48.9628 47.05 48.6175 46.966 48.2068 46.966C47.7121 46.966 47.2921 47.1153 46.9468 47.414C46.6108 47.7033 46.3775 48.0953 46.2468 48.59H50.1248ZM53.0952 45.86H54.5652V46.91H54.6352C54.7939 46.546 55.0692 46.2473 55.4612 46.014C55.8532 45.7713 56.2686 45.65 56.7072 45.65C57.0526 45.65 57.3419 45.6967 57.5752 45.79V47.386C57.1646 47.2367 56.7959 47.162 56.4692 47.162C56.1146 47.162 55.7972 47.2553 55.5172 47.442C55.2466 47.6287 55.0319 47.8807 54.8732 48.198C54.7146 48.506 54.6352 48.8467 54.6352 49.22V53H53.0952V45.86ZM65.6272 53.224C64.8805 53.224 64.2179 53.056 63.6392 52.72C63.0699 52.384 62.6265 51.908 62.3092 51.292C61.9919 50.676 61.8332 49.962 61.8332 49.15V42.976H63.3872V49.234C63.3872 49.9713 63.5785 50.5733 63.9612 51.04C64.3532 51.4973 64.9085 51.726 65.6272 51.726C66.3459 51.726 66.8965 51.4973 67.2792 51.04C67.6619 50.5827 67.8532 49.9807 67.8532 49.234V42.976H69.4212V49.15C69.4212 49.9527 69.2672 50.662 68.9592 51.278C68.6512 51.894 68.2125 52.3747 67.6432 52.72C67.0739 53.056 66.4019 53.224 65.6272 53.224ZM71.2788 45.86H72.7488V46.798H72.8188C73.0241 46.462 73.3275 46.1867 73.7288 45.972C74.1395 45.748 74.5735 45.636 75.0308 45.636C75.8988 45.636 76.5568 45.8927 77.0048 46.406C77.4621 46.91 77.6908 47.6007 77.6908 48.478V53H76.1508V48.688C76.1508 48.128 76.0108 47.7173 75.7308 47.456C75.4601 47.1947 75.0821 47.064 74.5968 47.064C74.2515 47.064 73.9435 47.162 73.6728 47.358C73.4021 47.5447 73.1921 47.7967 73.0428 48.114C72.8935 48.4313 72.8188 48.772 72.8188 49.136V53H71.2788V45.86ZM79.4273 42.976H80.9673V53H79.4273V42.976ZM83.6589 44.824C83.3695 44.824 83.1222 44.726 82.9169 44.53C82.7209 44.3247 82.6229 44.0773 82.6229 43.788C82.6229 43.4987 82.7209 43.256 82.9169 43.06C83.1222 42.8547 83.3695 42.752 83.6589 42.752C83.9482 42.752 84.1909 42.8547 84.3869 43.06C84.5922 43.256 84.6949 43.4987 84.6949 43.788C84.6949 44.0773 84.5922 44.3247 84.3869 44.53C84.1909 44.726 83.9482 44.824 83.6589 44.824ZM82.8889 45.86H84.4289V53H82.8889V45.86ZM86.3452 45.86H87.8152V46.798H87.8852C88.0999 46.4527 88.4032 46.1727 88.7952 45.958C89.1872 45.7433 89.6072 45.636 90.0552 45.636C90.5686 45.636 91.0166 45.7573 91.3992 46C91.7819 46.2333 92.0572 46.546 92.2252 46.938C92.4679 46.546 92.7899 46.2333 93.1912 46C93.6019 45.7573 94.0826 45.636 94.6332 45.636C95.4546 45.636 96.0752 45.888 96.4952 46.392C96.9246 46.8867 97.1392 47.5633 97.1392 48.422V53H95.5992V48.688C95.5992 47.6053 95.1372 47.064 94.2132 47.064C93.7186 47.064 93.3126 47.2647 92.9952 47.666C92.6779 48.0673 92.5192 48.562 92.5192 49.15V53H90.9792V48.688C90.9792 47.6053 90.5032 47.064 89.5512 47.064C89.0659 47.064 88.6646 47.2647 88.3472 47.666C88.0392 48.0673 87.8852 48.562 87.8852 49.15V53H86.3452V45.86ZM99.778 44.824C99.4887 44.824 99.2413 44.726 99.036 44.53C98.84 44.3247 98.742 44.0773 98.742 43.788C98.742 43.4987 98.84 43.256 99.036 43.06C99.2413 42.8547 99.4887 42.752 99.778 42.752C100.067 42.752 100.31 42.8547 100.506 43.06C100.711 43.256 100.814 43.4987 100.814 43.788C100.814 44.0773 100.711 44.3247 100.506 44.53C100.31 44.726 100.067 44.824 99.778 44.824ZM99.008 45.86H100.548V53H99.008V45.86ZM105.322 53.112C105.005 53.112 104.706 53.0607 104.426 52.958C104.146 52.8553 103.917 52.72 103.74 52.552C103.339 52.1507 103.138 51.6047 103.138 50.914V47.218H101.892V45.86H103.138V43.844H104.678V45.86H106.414V47.218H104.678V50.578C104.678 50.9607 104.753 51.2313 104.902 51.39C105.042 51.5767 105.285 51.67 105.63 51.67C105.789 51.67 105.929 51.6513 106.05 51.614C106.171 51.5673 106.302 51.4973 106.442 51.404V52.902C106.134 53.042 105.761 53.112 105.322 53.112ZM110.867 53.224C110.167 53.224 109.537 53.0607 108.977 52.734C108.426 52.4073 107.992 51.9593 107.675 51.39C107.367 50.8113 107.213 50.1627 107.213 49.444C107.213 48.7627 107.362 48.1327 107.661 47.554C107.969 46.966 108.394 46.4993 108.935 46.154C109.476 45.8087 110.092 45.636 110.783 45.636C111.502 45.636 112.122 45.7947 112.645 46.112C113.177 46.4293 113.578 46.8633 113.849 47.414C114.129 47.9647 114.269 48.5853 114.269 49.276C114.269 49.4067 114.255 49.57 114.227 49.766H108.753C108.809 50.4287 109.042 50.942 109.453 51.306C109.873 51.6607 110.358 51.838 110.909 51.838C111.348 51.838 111.726 51.74 112.043 51.544C112.37 51.3387 112.631 51.0633 112.827 50.718L114.129 51.334C113.793 51.922 113.354 52.384 112.813 52.72C112.272 53.056 111.623 53.224 110.867 53.224ZM112.701 48.59C112.682 48.338 112.603 48.0907 112.463 47.848C112.323 47.596 112.108 47.386 111.819 47.218C111.539 47.05 111.194 46.966 110.783 46.966C110.288 46.966 109.868 47.1153 109.523 47.414C109.187 47.7033 108.954 48.0953 108.823 48.59H112.701ZM118.792 53.224C118.148 53.224 117.564 53.0607 117.042 52.734C116.519 52.4073 116.104 51.9593 115.796 51.39C115.497 50.8113 115.348 50.158 115.348 49.43C115.348 48.702 115.497 48.0533 115.796 47.484C116.104 46.9053 116.519 46.4527 117.042 46.126C117.564 45.7993 118.148 45.636 118.792 45.636C119.296 45.636 119.748 45.748 120.15 45.972C120.551 46.196 120.854 46.4713 121.06 46.798H121.13L121.06 45.79V42.976H122.6V53H121.13V52.076H121.06C120.854 52.3933 120.551 52.664 120.15 52.888C119.748 53.112 119.296 53.224 118.792 53.224ZM119.016 51.81C119.389 51.81 119.734 51.712 120.052 51.516C120.378 51.32 120.64 51.04 120.836 50.676C121.032 50.312 121.13 49.8967 121.13 49.43C121.13 48.9633 121.032 48.5527 120.836 48.198C120.64 47.834 120.378 47.554 120.052 47.358C119.734 47.162 119.389 47.064 119.016 47.064C118.642 47.064 118.292 47.162 117.966 47.358C117.639 47.554 117.378 47.834 117.182 48.198C116.986 48.5527 116.888 48.9633 116.888 49.43C116.888 49.8967 116.986 50.312 117.182 50.676C117.378 51.04 117.639 51.32 117.966 51.516C118.292 51.712 118.642 51.81 119.016 51.81ZM127.927 42.976H131.693C132.225 42.976 132.715 43.0927 133.163 43.326C133.621 43.5593 133.985 43.8813 134.255 44.292C134.526 44.7027 134.661 45.1553 134.661 45.65C134.661 46.1447 134.535 46.574 134.283 46.938C134.041 47.302 133.719 47.5773 133.317 47.764V47.848C133.821 48.0253 134.227 48.3193 134.535 48.73C134.853 49.1407 135.011 49.6213 135.011 50.172C135.011 50.7227 134.867 51.2127 134.577 51.642C134.297 52.0713 133.915 52.4073 133.429 52.65C132.953 52.8833 132.431 53 131.861 53H127.927V42.976ZM131.623 47.176C132.071 47.176 132.431 47.036 132.701 46.756C132.981 46.476 133.121 46.154 133.121 45.79C133.121 45.426 132.986 45.1087 132.715 44.838C132.454 44.558 132.109 44.418 131.679 44.418H129.495V47.176H131.623ZM131.861 51.544C132.337 51.544 132.715 51.3947 132.995 51.096C133.285 50.7973 133.429 50.452 133.429 50.06C133.429 49.6587 133.28 49.3133 132.981 49.024C132.692 48.7253 132.3 48.576 131.805 48.576H129.495V51.544H131.861ZM139.812 53.224C139.094 53.224 138.45 53.0607 137.88 52.734C137.311 52.398 136.868 51.9407 136.55 51.362C136.233 50.7833 136.074 50.1393 136.074 49.43C136.074 48.7207 136.233 48.0767 136.55 47.498C136.868 46.9193 137.311 46.4667 137.88 46.14C138.45 45.804 139.094 45.636 139.812 45.636C140.531 45.636 141.175 45.804 141.744 46.14C142.314 46.476 142.757 46.9333 143.074 47.512C143.392 48.0907 143.55 48.73 143.55 49.43C143.55 50.1393 143.392 50.7833 143.074 51.362C142.757 51.9407 142.314 52.398 141.744 52.734C141.175 53.0607 140.531 53.224 139.812 53.224ZM139.812 51.81C140.204 51.81 140.568 51.7167 140.904 51.53C141.24 51.334 141.506 51.0587 141.702 50.704C141.908 50.34 142.01 49.9153 142.01 49.43C142.01 48.9447 141.908 48.5247 141.702 48.17C141.506 47.8153 141.24 47.5447 140.904 47.358C140.568 47.162 140.204 47.064 139.812 47.064C139.42 47.064 139.056 47.162 138.72 47.358C138.384 47.5447 138.114 47.8153 137.908 48.17C137.712 48.5247 137.614 48.9447 137.614 49.43C137.614 49.9153 137.712 50.34 137.908 50.704C138.114 51.0587 138.384 51.334 138.72 51.53C139.056 51.7167 139.42 51.81 139.812 51.81ZM148.316 53.224C147.598 53.224 146.954 53.0607 146.384 52.734C145.815 52.398 145.372 51.9407 145.054 51.362C144.737 50.7833 144.578 50.1393 144.578 49.43C144.578 48.7207 144.737 48.0767 145.054 47.498C145.372 46.9193 145.815 46.4667 146.384 46.14C146.954 45.804 147.598 45.636 148.316 45.636C149.035 45.636 149.679 45.804 150.248 46.14C150.818 46.476 151.261 46.9333 151.578 47.512C151.896 48.0907 152.054 48.73 152.054 49.43C152.054 50.1393 151.896 50.7833 151.578 51.362C151.261 51.9407 150.818 52.398 150.248 52.734C149.679 53.0607 149.035 53.224 148.316 53.224ZM148.316 51.81C148.708 51.81 149.072 51.7167 149.408 51.53C149.744 51.334 150.01 51.0587 150.206 50.704C150.412 50.34 150.514 49.9153 150.514 49.43C150.514 48.9447 150.412 48.5247 150.206 48.17C150.01 47.8153 149.744 47.5447 149.408 47.358C149.072 47.162 148.708 47.064 148.316 47.064C147.924 47.064 147.56 47.162 147.224 47.358C146.888 47.5447 146.618 47.8153 146.412 48.17C146.216 48.5247 146.118 48.9447 146.118 49.43C146.118 49.9153 146.216 50.34 146.412 50.704C146.618 51.0587 146.888 51.334 147.224 51.53C147.56 51.7167 147.924 51.81 148.316 51.81ZM153.406 42.976H154.946V48.814H154.988L157.914 45.86H159.846V45.944L157.074 48.702L159.93 52.916V53H158.096L155.996 49.766L154.946 50.788V53H153.406V42.976ZM163.352 53.224C162.53 53.224 161.858 53.0467 161.336 52.692C160.813 52.328 160.444 51.866 160.23 51.306L161.602 50.704C161.77 51.0773 162.003 51.362 162.302 51.558C162.61 51.754 162.96 51.852 163.352 51.852C163.734 51.852 164.056 51.7867 164.318 51.656C164.579 51.516 164.71 51.3107 164.71 51.04C164.71 50.7787 164.598 50.5733 164.374 50.424C164.15 50.2747 163.804 50.144 163.338 50.032L162.484 49.822C161.914 49.682 161.443 49.4347 161.07 49.08C160.696 48.7253 160.51 48.2773 160.51 47.736C160.51 47.316 160.631 46.9473 160.874 46.63C161.126 46.3127 161.462 46.07 161.882 45.902C162.302 45.7247 162.759 45.636 163.254 45.636C163.916 45.636 164.5 45.7713 165.004 46.042C165.508 46.3033 165.872 46.686 166.096 47.19L164.752 47.778C164.481 47.2273 163.986 46.952 163.268 46.952C162.922 46.952 162.633 47.022 162.4 47.162C162.166 47.302 162.05 47.484 162.05 47.708C162.05 47.9227 162.138 48.1 162.316 48.24C162.493 48.3707 162.754 48.4827 163.1 48.576L164.15 48.842C164.85 49.0193 165.377 49.29 165.732 49.654C166.096 50.0087 166.278 50.4473 166.278 50.97C166.278 51.418 166.147 51.8147 165.886 52.16C165.634 52.496 165.284 52.7573 164.836 52.944C164.388 53.1307 163.893 53.224 163.352 53.224ZM168.577 53.084C168.278 53.084 168.022 52.9813 167.807 52.776C167.602 52.5613 167.499 52.3047 167.499 52.006C167.499 51.7073 167.602 51.4553 167.807 51.25C168.022 51.0447 168.278 50.942 168.577 50.942C168.876 50.942 169.128 51.0447 169.333 51.25C169.548 51.4553 169.655 51.7073 169.655 52.006C169.655 52.3047 169.548 52.5613 169.333 52.776C169.128 52.9813 168.876 53.084 168.577 53.084Z" fill="#163C57"/>
</svg>
